<svg width="60" height="75" viewBox="0 0 60 75" fill="none" xmlns="http://www.w3.org/2000/svg">
<circle cx="30.7151" cy="29.6712" r="22.1429" fill="white"/>
<path d="M57.2857 27.2429C55.8571 27.2429 54.8571 26.2429 54.5714 24.9572C54.5714 24.6715 54.5714 24.3857 54.4286 24.2429C54 22.9572 54.7143 21.5286 55.8571 20.8143L56.4286 20.5286C57.8571 19.6715 58.2857 17.8143 57.4286 16.5286L56.5714 15.1C55.7143 13.6715 53.8571 13.1 52.4286 13.9572L52 14.2429C50.8571 14.9572 49.2857 14.6715 48.2857 13.6715C48.1429 13.5286 48.1429 13.5286 48 13.3857C47 12.3857 46.7143 10.9572 47.4286 9.67146L47.8571 8.95717C48.7143 7.5286 48.1429 5.67146 46.7143 4.81431L45.4286 4.10003C44 3.24288 42.1429 3.81431 41.2857 5.24289L41 5.67146C40.2857 6.81431 38.8571 7.38574 37.5714 7.10003C37.4286 7.10003 37 7.10003 36.8571 6.95717C35.5714 6.67146 34.2857 5.38574 34.2857 4.10003V3.10003C34.2857 1.38574 33.5714 0.385742 31.8571 0.385742H30.7143C29.1429 0.385742 27.1429 1.38574 27.1429 3.10003V3.81431C27.1429 5.24289 26.5714 6.38574 25.1429 6.81431C24.8571 6.81431 24.8571 6.95717 24.5714 6.95717C23.2857 7.38574 22 6.81431 21.2857 5.67146L21 5.10003C20.1429 3.67146 18.4286 3.24288 17 4.10003L15.5714 4.95717C14 5.67146 13.5714 7.5286 14.4286 8.95717L14.7143 9.38574C15.4286 10.5286 15.1429 12.1 14.1429 13.1C14 13.1 13.8571 13.2429 13.8571 13.3857C12.8571 14.3857 11.2857 14.5286 10.1429 13.8143L9.57143 13.6715C8.14286 12.8143 6.42857 13.2429 5.57143 14.6715L4.71429 16.1C3.85714 17.5286 4.28571 19.3857 5.71429 20.2429L6.42857 20.6715C7.57143 21.3857 8 22.8143 7.71429 24.1C7.71429 24.3857 7.57143 24.8143 7.57143 25.1C7.14286 26.3857 5.85714 27.5286 4.57143 27.5286H3.71429C2 27.5286 0 28.5286 0 30.2429V31.3857C0 32.9572 2 34.6715 3.71429 34.6715H4.71429C6.14286 34.6715 7.28571 35.3857 7.57143 36.6715C7.57143 36.8143 7.71429 36.8143 7.71429 36.9572C8.14286 38.2429 7.42857 39.6715 6.28571 40.2429L5.85714 40.5286C4.42857 41.3857 3.85714 43.2429 4.71429 44.6715L5.57143 46.1C6.42857 47.5286 8.28572 47.9572 9.71429 47.2429L10.1429 46.9572C11.1429 46.3857 12.5714 46.5286 13.4286 47.2429L3 68.6714L12.5714 65.3857L16 74.9572L26 54.2429C26.8571 54.8143 27.1429 55.8143 27.1429 56.8143V56.9572C27.1429 58.6715 29.1429 60.3857 30.8571 60.3857H32C33.7143 60.3857 34.4286 58.6715 34.4286 56.9572V56.6715C34.4286 55.8143 34.8571 55.1 35.5714 54.5286L45.4286 74.9572L48.8571 65.3857L58.4286 68.6714L48.2857 47.6715C48.4286 47.5286 48.4286 47.5286 48.5714 47.3857C49.5714 46.3857 51 46.1 52.2857 46.8143L52.7143 47.1C54.1429 47.9572 56 47.3857 56.8571 45.9572L57.5714 44.6715C58.4286 43.2429 57.8571 41.3857 56.4286 40.5286L55.8571 40.3857C54.7143 39.6715 54 38.3857 54.4286 36.9572C54.4286 36.8143 54.5714 36.8143 54.5714 36.6715C54.8571 35.3857 56.1429 34.6715 57.4286 34.6715H57.5714C59.2857 34.6715 60 32.9572 60 31.2429V30.1C60 28.5286 59 27.2429 57.2857 27.2429ZM30.7143 51.1C19.1429 51.1 9.71429 41.6715 9.71429 30.1C9.57143 18.3857 19 8.95717 30.7143 8.95717C42.4286 8.95717 51.7143 18.3857 51.7143 29.9572C51.7143 41.6715 42.2857 51.1 30.7143 51.1Z" fill="#97BC2D"/>
<path d="M30.7144 10.8145C20.0001 10.8145 11.4287 19.3859 11.4287 30.1002C11.4287 40.8145 20.0001 49.3859 30.7144 49.3859C41.4287 49.3859 50.0001 40.8145 50.0001 30.1002C50.0001 19.3859 41.2859 10.8145 30.7144 10.8145ZM44.2859 25.9573L33.2859 37.6716L31.8573 39.1002C30.0001 40.9573 27.143 40.9573 25.4287 39.1002L24.0001 37.6716L17.143 30.1002C15.8573 28.8145 15.8573 26.6716 17.143 25.3859C18.4287 24.1002 20.4287 24.1002 21.7144 25.3859L28.5716 32.9573L39.5716 21.243C40.8573 19.9573 42.8573 19.9573 44.143 21.243C45.5716 22.5287 45.5716 24.6716 44.2859 25.9573Z" fill="#97BC2D"/>
</svg>
