<svg width="23" height="25" viewBox="0 0 23 25" fill="none" xmlns="http://www.w3.org/2000/svg">
<path d="M7.07265 19.1486C1.23895 13.2105 -2.07691 5.36778 1.44533 1.27835C2.17454 0.424056 4.22459 -0.402232 4.91253 0.213983C5.54543 0.802188 5.57295 1.93658 6.60486 3.78523C7.34783 5.10169 7.99449 5.45181 7.95321 6.12404C7.87066 7.46851 5.79309 7.69259 5.82061 9.40119C5.86188 11.5019 7.19648 14.0508 8.84753 15.7174C10.5536 17.454 12.5624 18.6024 14.2134 18.6724C15.6443 18.7284 15.9608 17.0759 17.2954 16.8658C17.9696 16.7537 18.4374 17.6221 19.7857 18.6304C20.9965 19.5407 22.9365 20.1009 22.9915 20.8712C23.0878 22.0756 22.3448 23.168 21.7807 23.7282C19.4555 25.997 13.4705 25.6609 7.07265 19.1486Z" fill="#222222"/>
</svg>
