<svg width="24" height="17" viewBox="0 0 24 17" fill="none" xmlns="http://www.w3.org/2000/svg">
<path d="M4.39579 8.18541C4.39579 6.72014 4.8 5.30541 5.50737 4.09277C2.37474 4.64856 0 7.0233 0 9.9033C0 11.0654 0.404211 12.1265 1.06105 13.0865L0.151579 15.3601L2.6779 14.6528C3.84 15.4107 5.30526 15.9159 6.87158 15.9159C7.52842 15.9159 8.18526 15.8149 8.84211 15.6633C6.11369 13.9959 4.39579 11.2675 4.39579 8.18541Z" fill="white"/>
<path d="M24 8.18527C24 3.6379 19.8568 0 14.7031 0C9.59995 0 5.45679 3.6379 5.45679 8.18527C5.45679 12.6821 9.59995 16.3705 14.7536 16.3705C16.8757 16.3705 18.8463 15.7137 20.4126 14.6526L23.8484 15.6632L22.5852 12.5305C23.4947 11.2674 24 9.75158 24 8.18527ZM11.4694 8.94316C11.0652 8.94316 10.7115 8.58948 10.7115 8.18527C10.7115 7.78105 11.0652 7.42737 11.4694 7.42737C11.8736 7.42737 12.2273 7.78105 12.2273 8.18527C12.2273 8.64 11.9242 8.94316 11.4694 8.94316ZM14.3999 8.94316C13.9957 8.94316 13.6421 8.58948 13.6421 8.18527C13.6421 7.78105 13.9957 7.42737 14.3999 7.42737C14.8042 7.42737 15.1578 7.78105 15.1578 8.18527C15.2084 8.64 14.8547 8.94316 14.3999 8.94316ZM17.381 8.94316C16.9768 8.94316 16.6231 8.58948 16.6231 8.18527C16.6231 7.78105 16.9768 7.42737 17.381 7.42737C17.7852 7.42737 18.1389 7.78105 18.1389 8.18527C18.1389 8.64 17.7852 8.94316 17.381 8.94316Z" fill="white"/>
</svg>
